<?xml version="1.0" encoding="utf-8"?>
<!-- Generator: Adobe Illustrator 22.1.0, SVG Export Plug-In . SVG Version: 6.00 Build 0)  -->
<svg version="1.1" id="Layer_1" xmlns="http://www.w3.org/2000/svg" xmlns:xlink="http://www.w3.org/1999/xlink" x="0px" y="0px"
	 viewBox="0 0 531 530" style="enable-background:new 0 0 531 530;" xml:space="preserve">
<style type="text/css">
	.st0{fill:url(#SVGID_1_);}
</style>
<title>HalfGear</title>
<g>
	
		<image style="overflow:visible;opacity:0.75;" width="535" height="534" xlink:href="10AD57B3BBBBCFE9.png"  transform="matrix(1 0 0 1 -2 -2)">
	</image>
	<g>
		
			<linearGradient id="SVGID_1_" gradientUnits="userSpaceOnUse" x1="271" y1="9" x2="271" y2="513" gradientTransform="matrix(1 0 0 -1 -5.86 526)">
			<stop  offset="0" style="stop-color:#360940"/>
			<stop  offset="0.31" style="stop-color:#782848"/>
			<stop  offset="0.64" style="stop-color:#B94550"/>
			<stop  offset="0.88" style="stop-color:#E15855"/>
			<stop  offset="1" style="stop-color:#F05F57"/>
		</linearGradient>
		<path class="st0" d="M220.2,401.6l52.1-68.9v142.4c-8.4-0.3-16.7,1.2-24.5,4.4c-11.6,4.8-21.3,13.1-27.8,23.9l-8.2,13.6
			c-27.7-6-54.2-16.4-78.5-31l3.2-15.3c6.4-32.1-14.4-63.3-46.5-69.7c-8.4-1.7-17.2-1.5-25.5,0.5l-15.3,3.8
			c-8.7-13.2-16.1-27.2-22.1-41.9c-4.8-11.5-8.7-23.4-11.6-35.5l13-8.5c16.9-11.2,26.9-30.2,26.6-50.5
			c-0.3-20.3-11.1-38.9-28.5-49.3L13,211.4c6-27.7,16.4-54.2,31-78.5l24.7,5.1c31.9,6.5,63.1-14.1,69.6-46c1.6-7.8,1.6-15.9,0-23.7
			l-5-24.6c10.6-6.5,21.7-12.2,33.2-17c14.2-5.9,29-10.5,44.1-13.7v118.7c-73.5,30.1-108.8,114.1-78.6,187.7
			c15.7,38.4,47.3,68.2,86.6,81.6L220.2,401.6z M475.3,269c0.3-20.2,11-38.9,28.4-49.4l13.6-8.2c-3.3-15.5-7.9-30.6-14-45.3
			c-4.8-11.5-10.5-22.6-17-33.2l-15.1,3.1c-32,6.6-63.2-14-69.8-45.9c-1.8-8.5-1.6-17.3,0.4-25.8l3.9-15.7
			c-23.8-15.3-49.9-26.6-77.3-33.4l-8.5,12.9c-6.4,9.9-15.7,17.6-26.6,22.1c-8.1,3.4-16.9,4.9-25.7,4.4v148.5l53.5-70.8l1.7,0.8
			c72.8,31.8,106.1,116.6,74.3,189.4c-13.5,31-37.5,56.2-67.8,71.2v120.5c11.8-2.9,23.3-6.6,34.5-11.3c14.6-6,28.6-13.5,41.8-22.2
			l-1.3-5.4c-7.9-32.4,11.6-59.1,35-68.8c11.6-4.8,24.4-5.7,36.5-2.6l5.5,1.3c15.3-23.8,26.6-49.9,33.5-77.4l-12.9-8.5
			C484.9,308.4,474.8,289.3,475.3,269z"/>
	</g>
</g>
</svg>
