<?xml version="1.0" standalone="no"?>
<!DOCTYPE svg PUBLIC "-//W3C//DTD SVG 20010904//EN"
 "http://www.w3.org/TR/2001/REC-SVG-20010904/DTD/svg10.dtd">
<svg version="1.0" xmlns="http://www.w3.org/2000/svg"
 width="1000.000000pt" height="1000.000000pt" viewBox="0 0 1000.000000 1000.000000"
 preserveAspectRatio="xMidYMid meet">
<metadata>
Created by potrace 1.11, written by Peter Selinger 2001-2013
</metadata>
<g transform="translate(0.000000,1000.000000) scale(0.100000,-0.100000)"
fill="#000000" stroke="none">
<path d="M3840 9830 c0 -5 -25 -10 -55 -10 -30 0 -55 -4 -55 -9 0 -4 -31 -12
-70 -15 -38 -4 -70 -11 -70 -17 0 -5 -16 -9 -35 -9 -19 0 -35 -4 -35 -10 0 -5
-13 -10 -30 -10 -16 0 -30 -4 -30 -10 0 -5 -11 -10 -25 -10 -14 0 -25 -4 -25
-10 0 -5 -13 -10 -30 -10 -16 0 -30 -4 -30 -10 0 -5 -13 -10 -30 -10 -16 0
-30 -4 -30 -10 0 -5 -11 -10 -25 -10 -14 0 -25 -4 -25 -10 0 -5 -9 -10 -20
-10 -11 0 -20 -4 -20 -9 0 -4 -19 -11 -42 -14 -24 -3 -44 -11 -46 -16 -2 -6
-17 -11 -33 -11 -16 0 -29 -4 -29 -10 0 -5 -9 -10 -20 -10 -11 0 -20 -4 -20
-10 0 -5 -9 -10 -20 -10 -11 0 -20 -4 -20 -10 0 -5 -7 -10 -15 -10 -8 0 -15
-4 -15 -10 0 -5 -13 -10 -30 -10 -16 0 -30 -4 -30 -10 0 -5 -9 -10 -20 -10
-11 0 -20 -4 -20 -9 0 -5 -16 -12 -35 -15 -19 -4 -35 -11 -35 -16 0 -6 -9 -10
-20 -10 -11 0 -20 -4 -20 -10 0 -5 -8 -10 -18 -10 -10 0 -24 -9 -32 -20 -8
-11 -22 -20 -32 -20 -10 0 -18 -4 -18 -10 0 -5 -7 -10 -15 -10 -8 0 -15 -4
-15 -10 0 -5 -7 -10 -15 -10 -27 0 -135 -104 -135 -130 0 -11 -4 -20 -10 -20
-5 0 -10 -13 -10 -30 0 -16 -4 -30 -10 -30 -6 0 -10 -28 -10 -65 0 -37 4 -65
10 -65 6 0 10 -20 10 -45 0 -25 4 -45 9 -45 5 0 12 -43 16 -95 4 -52 11 -95
16 -95 5 0 9 -25 9 -55 0 -30 5 -55 10 -55 6 0 10 -52 10 -135 0 -83 -4 -135
-10 -135 -5 0 -10 -20 -10 -45 0 -25 -4 -45 -9 -45 -4 0 -11 -28 -15 -62 -3
-35 -11 -64 -16 -66 -6 -2 -10 -12 -10 -23 0 -10 -4 -19 -10 -19 -5 0 -10 -9
-10 -20 0 -11 -4 -20 -10 -20 -5 0 -10 -9 -10 -20 0 -11 -4 -20 -10 -20 -5 0
-10 -7 -10 -15 0 -8 -4 -15 -10 -15 -5 0 -10 -7 -10 -15 0 -9 -11 -27 -25 -41
-14 -14 -25 -34 -25 -44 0 -11 -4 -20 -10 -20 -13 0 -160 -147 -160 -160 0 -6
-9 -10 -19 -10 -11 0 -26 -7 -35 -15 -8 -8 -21 -15 -28 -15 -8 0 -20 -9 -28
-20 -8 -11 -20 -20 -27 -20 -7 0 -13 -4 -13 -10 0 -5 -9 -10 -20 -10 -11 0
-20 -4 -20 -10 0 -5 -9 -10 -20 -10 -11 0 -20 -4 -20 -10 0 -5 -13 -10 -29
-10 -16 0 -31 -4 -33 -10 -1 -5 -31 -13 -65 -16 -35 -4 -63 -11 -63 -15 0 -5
-20 -9 -45 -9 -25 0 -45 -4 -45 -10 0 -6 -42 -10 -105 -10 -63 0 -105 4 -105
10 0 6 -25 10 -55 10 -30 0 -55 4 -55 9 0 5 -43 12 -95 16 -52 4 -95 11 -95
16 0 5 -22 9 -50 9 -27 0 -50 5 -50 10 0 6 -37 10 -90 10 -53 0 -90 -4 -90
-10 0 -5 -12 -10 -26 -10 -14 0 -32 -7 -40 -15 -9 -8 -24 -15 -35 -15 -11 0
-19 -7 -19 -16 0 -8 -6 -22 -12 -29 -31 -34 -38 -45 -38 -57 0 -8 -9 -20 -20
-28 -11 -8 -20 -20 -20 -27 0 -7 -4 -13 -10 -13 -5 0 -10 -9 -10 -20 0 -11 -4
-20 -10 -20 -5 0 -10 -9 -10 -20 0 -11 -4 -20 -10 -20 -5 0 -10 -9 -10 -20 0
-11 -4 -20 -10 -20 -5 0 -10 -7 -10 -15 0 -8 -4 -15 -9 -15 -5 0 -12 -18 -16
-40 -4 -22 -11 -40 -16 -40 -5 0 -9 -9 -9 -20 0 -11 -4 -20 -10 -20 -5 0 -10
-9 -10 -20 0 -11 -4 -20 -10 -20 -5 0 -10 -7 -10 -15 0 -8 -4 -15 -10 -15 -5
0 -10 -13 -10 -30 0 -16 -4 -30 -10 -30 -5 0 -10 -9 -10 -20 0 -11 -4 -20 -10
-20 -5 0 -10 -11 -10 -25 0 -14 -4 -25 -10 -25 -5 0 -12 -22 -16 -50 -4 -27
-10 -50 -15 -50 -5 0 -9 -9 -9 -20 0 -11 -4 -20 -10 -20 -5 0 -10 -11 -10 -25
0 -14 -4 -25 -10 -25 -5 0 -10 -13 -10 -30 0 -16 -4 -30 -10 -30 -5 0 -10 -13
-10 -30 0 -16 -4 -30 -10 -30 -5 0 -10 -11 -10 -25 0 -14 -4 -25 -10 -25 -5 0
-10 -13 -10 -30 0 -16 -4 -30 -10 -30 -5 0 -10 -11 -10 -25 0 -14 -4 -25 -9
-25 -4 0 -12 -31 -15 -70 -4 -38 -11 -70 -17 -70 -5 0 -9 -20 -9 -45 0 -25 -4
-45 -10 -45 -6 0 -10 -32 -10 -75 0 -43 4 -75 10 -75 6 0 10 -13 10 -30 0 -16
5 -30 10 -30 6 0 10 -7 10 -16 0 -19 74 -94 93 -94 7 0 19 -9 27 -20 8 -11 22
-20 32 -20 9 0 19 -9 23 -19 3 -12 19 -21 42 -26 21 -4 48 -19 64 -36 15 -16
30 -29 34 -29 4 0 24 -18 45 -40 21 -22 46 -40 54 -40 9 0 16 -4 16 -9 0 -5 9
-13 20 -16 11 -3 20 -13 20 -21 0 -15 8 -27 48 -69 12 -13 22 -30 22 -37 0 -8
9 -20 20 -28 11 -8 20 -20 20 -27 0 -7 5 -13 10 -13 6 0 10 -9 10 -20 0 -11 5
-20 10 -20 6 0 10 -9 10 -20 0 -11 5 -20 10 -20 6 0 10 -9 10 -20 0 -11 4 -20
9 -20 5 0 13 -25 16 -55 4 -30 11 -55 16 -55 5 0 9 -16 9 -35 0 -19 5 -35 10
-35 6 0 10 -27 10 -60 0 -33 4 -60 10 -60 6 0 10 -32 10 -75 0 -43 -4 -75 -10
-75 -5 0 -10 -25 -10 -55 0 -30 -4 -55 -10 -55 -5 0 -10 -18 -10 -40 0 -22 -4
-40 -9 -40 -5 0 -13 -25 -16 -55 -4 -30 -11 -55 -16 -55 -5 0 -9 -9 -9 -20 0
-11 -4 -20 -10 -20 -5 0 -10 -7 -10 -15 0 -8 -4 -15 -10 -15 -5 0 -10 -9 -10
-20 0 -11 -4 -20 -10 -20 -5 0 -10 -8 -10 -18 0 -10 -9 -24 -20 -32 -11 -8
-20 -20 -20 -28 0 -7 -16 -28 -35 -46 -19 -19 -35 -39 -35 -45 0 -19 -85 -97
-113 -105 -15 -3 -27 -10 -27 -15 0 -14 -37 -51 -51 -51 -8 0 -21 -9 -29 -20
-8 -11 -21 -20 -30 -20 -9 0 -22 -9 -30 -20 -8 -11 -18 -20 -23 -20 -19 0
-117 -95 -117 -114 0 -9 -4 -16 -10 -16 -5 0 -10 -9 -10 -20 0 -11 -4 -20 -10
-20 -6 0 -10 -37 -10 -90 0 -53 4 -90 10 -90 6 0 10 -18 10 -40 0 -22 5 -40
10 -40 6 0 10 -13 10 -30 0 -16 5 -30 10 -30 6 0 10 -16 10 -35 0 -19 5 -35
10 -35 6 0 10 -13 10 -30 0 -16 5 -30 10 -30 6 0 10 -11 10 -25 0 -14 5 -25
10 -25 6 0 10 -9 10 -20 0 -11 5 -20 10 -20 6 0 10 -13 10 -30 0 -16 4 -30 9
-30 5 0 12 -20 15 -45 4 -25 11 -45 17 -45 5 0 9 -13 9 -30 0 -16 5 -30 10
-30 6 0 10 -9 10 -20 0 -11 5 -20 10 -20 6 0 10 -7 10 -15 0 -8 5 -15 10 -15
6 0 10 -13 10 -30 0 -16 5 -30 10 -30 6 0 10 -9 10 -20 0 -11 5 -20 10 -20 6
0 10 -9 10 -20 0 -11 4 -20 10 -20 5 0 12 -16 16 -35 3 -19 10 -35 15 -35 5 0
9 -9 9 -20 0 -11 5 -20 10 -20 6 0 10 -9 10 -20 0 -11 5 -20 10 -20 6 0 10 -7
10 -15 0 -8 5 -15 10 -15 6 0 10 -9 10 -20 0 -11 5 -20 10 -20 6 0 10 -8 10
-18 0 -10 9 -24 20 -32 11 -8 20 -22 20 -32 0 -10 4 -18 9 -18 5 0 13 -15 17
-32 3 -18 15 -40 25 -49 11 -9 19 -22 19 -29 0 -6 13 -25 30 -40 16 -15 30
-31 30 -35 0 -12 28 -35 44 -35 8 0 18 -9 21 -20 4 -14 15 -20 36 -20 16 0 29
-4 29 -10 0 -6 38 -10 95 -10 57 0 95 4 95 10 0 6 16 10 35 10 19 0 35 5 35
10 0 6 23 10 50 10 28 0 50 5 50 10 0 6 32 10 75 10 43 0 75 4 75 10 0 6 16
10 35 10 19 0 35 -4 35 -10 0 -6 32 -10 75 -10 43 0 75 -4 75 -10 0 -5 23 -10
50 -10 28 0 50 -4 50 -10 0 -5 14 -10 30 -10 17 0 30 -4 30 -10 0 -5 11 -10
25 -10 14 0 25 -4 25 -10 0 -5 9 -10 20 -10 11 0 20 -4 20 -10 0 -5 9 -10 20
-10 11 0 20 -4 20 -10 0 -5 9 -10 20 -10 11 0 23 -7 26 -15 4 -8 14 -15 23
-15 9 0 23 -9 31 -20 8 -11 21 -20 28 -20 8 0 27 -15 43 -33 33 -37 28 -32 97
-96 28 -27 52 -55 52 -61 0 -6 11 -22 25 -36 14 -14 25 -31 25 -39 0 -8 5 -15
10 -15 6 0 10 -9 10 -20 0 -11 5 -20 10 -20 6 0 10 -9 10 -20 0 -11 5 -20 10
-20 6 0 10 -9 10 -20 0 -11 5 -20 10 -20 6 0 10 -7 10 -15 0 -8 5 -15 10 -15
6 0 10 -13 10 -30 0 -16 5 -30 10 -30 6 0 10 -18 10 -39 0 -23 5 -41 13 -44
18 -6 17 -479 -1 -485 -7 -2 -12 -24 -12 -58 0 -30 -4 -54 -10 -54 -5 0 -10
-20 -10 -45 0 -25 5 -45 10 -45 6 0 10 -18 10 -40 0 -22 5 -40 10 -40 6 0 10
-7 10 -16 0 -19 74 -94 93 -94 7 0 19 -9 27 -20 8 -11 22 -20 32 -20 10 0 18
-4 18 -10 0 -5 6 -10 13 -10 7 0 19 -9 27 -19 7 -11 31 -23 52 -26 21 -4 38
-11 38 -16 0 -5 7 -9 15 -9 8 0 15 -4 15 -10 0 -5 9 -10 20 -10 11 0 20 -4 20
-10 0 -5 9 -10 20 -10 11 0 20 -4 20 -10 0 -5 9 -10 20 -10 11 0 20 -4 20 -10
0 -5 11 -10 25 -10 14 0 25 -4 25 -10 0 -5 9 -10 20 -10 11 0 20 -4 20 -10 0
-5 23 -12 50 -16 28 -4 50 -10 50 -15 0 -5 7 -9 15 -9 8 0 15 -4 15 -10 0 -5
14 -10 30 -10 17 0 30 -4 30 -10 0 -5 9 -10 20 -10 11 0 20 -4 20 -10 0 -5 11
-10 25 -10 14 0 25 -4 25 -10 0 -5 9 -10 20 -10 11 0 20 -4 20 -10 0 -5 14
-10 30 -10 17 0 30 -4 30 -10 0 -5 14 -10 30 -10 17 0 30 -4 30 -9 0 -5 25
-13 55 -16 30 -4 55 -11 55 -16 0 -5 16 -9 35 -9 19 0 35 -4 35 -10 0 -5 14
-10 30 -10 17 0 30 -4 30 -10 0 -5 18 -10 40 -10 22 0 40 -4 40 -10 0 -5 20
-10 45 -10 25 0 45 -4 45 -10 0 -6 28 -10 65 -10 37 0 65 4 65 10 0 6 14 10
30 10 17 0 30 5 30 10 0 6 9 10 20 10 11 0 20 4 20 10 0 10 36 48 69 70 11 8
21 21 21 30 0 9 9 22 20 30 11 8 20 22 20 32 0 10 4 18 9 18 5 0 13 10 17 23
4 12 15 29 25 38 11 9 19 22 19 29 0 6 13 25 30 40 16 15 30 35 30 44 0 9 4
16 10 16 10 0 38 28 80 79 14 17 31 31 38 31 7 0 28 16 48 35 19 19 41 35 49
35 8 0 15 5 15 10 0 6 8 10 18 10 10 0 24 9 32 20 8 11 22 20 32 20 10 0 18 5
18 10 0 6 11 10 25 10 14 0 25 5 25 10 0 6 9 10 20 10 11 0 20 5 20 10 0 6 18
10 40 10 22 0 40 5 40 10 0 6 16 10 35 10 19 0 35 4 35 9 0 4 42 11 93 15 50
3 94 11 95 16 2 6 10 10 19 10 21 0 93 78 93 101 0 10 5 19 10 19 6 0 10 16
10 35 0 19 5 35 10 35 7 0 10 412 10 1215 0 803 -3 1215 -10 1215 -5 0 -10 18
-10 40 0 22 -4 40 -10 40 -5 0 -12 16 -16 35 -4 25 -11 35 -25 35 -11 0 -19 5
-19 10 0 6 -9 10 -20 10 -11 0 -20 5 -20 10 0 6 -13 10 -30 10 -16 0 -30 -4
-30 -10 0 -5 -9 -10 -20 -10 -11 0 -41 -19 -65 -42 -106 -102 -115 -112 -115
-129 0 -13 -58 -69 -71 -69 -5 0 -9 -7 -9 -16 0 -9 -13 -29 -30 -44 -16 -15
-30 -35 -30 -44 0 -8 -11 -26 -25 -40 -14 -14 -25 -28 -25 -32 0 -3 -13 -19
-30 -34 -16 -15 -30 -33 -30 -39 0 -7 -11 -23 -25 -37 -14 -14 -25 -30 -25
-35 0 -6 -13 -24 -30 -39 -16 -15 -30 -33 -30 -40 0 -7 -13 -25 -30 -40 -16
-15 -30 -31 -30 -34 0 -4 -11 -18 -25 -32 -14 -14 -25 -32 -25 -40 0 -9 -13
-29 -30 -44 -16 -15 -30 -35 -30 -44 0 -9 -4 -16 -9 -16 -14 0 -71 -56 -71
-70 0 -6 -6 -18 -12 -25 -27 -30 -38 -44 -38 -50 0 -13 -70 -75 -85 -75 -8 0
-15 -4 -15 -10 0 -5 -25 -10 -55 -10 -30 0 -55 5 -55 10 0 6 -9 10 -20 10 -11
0 -20 5 -20 10 0 6 -11 10 -25 10 -14 0 -25 5 -25 10 0 6 -9 10 -20 10 -11 0
-20 4 -20 9 0 5 -18 12 -40 16 -22 4 -40 11 -40 16 0 5 -6 9 -13 9 -7 0 -19 9
-27 20 -8 11 -22 20 -32 20 -10 0 -18 5 -18 10 0 6 -8 10 -18 10 -10 0 -24 9
-32 20 -8 11 -22 20 -32 20 -10 0 -18 4 -18 9 0 5 -11 12 -25 15 -14 4 -25 11
-25 16 0 6 -7 10 -16 10 -9 0 -29 14 -44 30 -15 17 -31 30 -35 30 -4 0 -24 18
-45 40 -21 22 -45 40 -54 40 -16 0 -69 49 -96 89 -8 11 -20 21 -28 21 -7 0
-28 15 -47 33 -19 17 -40 37 -47 44 -24 22 -38 42 -38 53 0 14 -77 90 -91 90
-5 0 -9 7 -9 15 0 9 -10 27 -22 40 -39 41 -48 54 -48 66 0 13 -38 49 -52 49
-4 0 -8 8 -8 18 0 10 -9 24 -20 32 -11 8 -20 21 -20 30 0 9 -9 22 -20 30 -10
8 -22 28 -26 44 -4 17 -15 38 -25 47 -11 9 -19 24 -19 33 0 9 -4 16 -10 16 -5
0 -10 9 -10 20 0 11 -4 20 -10 20 -5 0 -10 7 -10 15 0 8 -4 15 -10 15 -5 0
-10 9 -10 20 0 11 -4 20 -10 20 -5 0 -10 9 -10 20 0 11 -4 20 -9 20 -6 0 -13
20 -17 45 -3 25 -10 45 -15 45 -5 0 -9 9 -9 20 0 11 -4 20 -10 20 -5 0 -10 14
-10 30 0 17 -4 30 -10 30 -5 0 -10 11 -10 25 0 14 -4 25 -10 25 -5 0 -10 14
-10 30 0 17 -4 30 -10 30 -5 0 -10 14 -10 30 0 17 -4 30 -10 30 -5 0 -10 11
-10 25 0 14 -4 25 -10 25 -5 0 -10 18 -10 40 0 22 -4 40 -9 40 -5 0 -12 43
-16 95 -4 52 -11 95 -16 95 -5 0 -9 29 -9 65 0 37 -4 65 -10 65 -6 0 -10 103
-10 290 0 187 4 290 10 290 6 0 10 28 10 65 0 36 4 65 9 65 4 0 11 37 15 83 4
45 11 84 16 85 6 2 10 21 10 43 0 21 5 39 10 39 6 0 10 18 10 40 0 22 5 40 10
40 6 0 10 11 10 25 0 14 5 25 10 25 6 0 10 9 10 20 0 11 5 20 10 20 6 0 10 14
10 30 0 17 5 30 10 30 6 0 10 11 10 25 0 14 5 25 10 25 6 0 10 9 10 20 0 11 4
20 9 20 4 0 11 19 14 42 3 24 11 44 16 46 6 2 11 12 11 23 0 10 5 19 10 19 6
0 10 9 10 20 0 11 5 20 10 20 6 0 10 9 10 20 0 11 5 20 10 20 6 0 10 7 10 15
0 8 5 15 10 15 6 0 10 7 10 16 0 9 8 24 19 33 10 9 22 32 26 51 4 19 16 42 26
51 11 9 19 20 19 25 0 5 9 16 20 24 11 8 20 21 20 30 0 9 9 22 20 30 11 8 20
22 20 32 0 9 9 20 20 23 11 3 23 18 27 33 3 15 28 48 55 74 26 26 48 49 48 53
0 14 211 225 225 225 4 0 27 22 53 48 26 27 59 52 74 55 15 4 30 16 33 27 3
11 14 20 23 20 10 0 24 9 32 20 8 11 21 20 30 20 9 0 22 9 30 20 8 11 19 20
24 20 5 0 16 8 25 18 9 11 28 22 44 26 15 3 27 11 27 16 0 6 9 10 20 10 11 0
20 5 20 10 0 6 9 10 20 10 11 0 20 5 20 10 0 6 7 10 15 10 8 0 15 5 15 10 0 6
9 10 20 10 11 0 20 5 20 10 0 6 9 10 20 10 11 0 20 5 20 10 0 6 9 10 19 10 10
0 21 7 25 15 3 8 12 15 21 15 20 0 105 85 105 105 0 8 5 15 10 15 6 0 10 9 10
19 0 11 6 21 13 24 18 6 18 2168 0 2175 -7 2 -13 10 -13 19 0 21 -58 73 -81
73 -10 0 -19 5 -19 10 0 6 -16 10 -35 10 -19 0 -35 5 -35 10 0 6 -9 10 -20 10
-11 0 -20 -4 -20 -10z"/>
<path d="M6178 9793 c-21 -2 -38 -8 -38 -14 0 -5 -7 -9 -16 -9 -19 0 -134
-118 -134 -137 0 -5 -9 -15 -20 -23 -11 -8 -20 -21 -20 -30 0 -9 -9 -22 -20
-30 -11 -8 -20 -21 -20 -29 0 -14 -37 -51 -51 -51 -5 0 -12 -12 -15 -27 -8
-28 -86 -113 -105 -113 -6 0 -26 -16 -45 -35 -18 -19 -39 -35 -46 -35 -8 0
-20 -9 -28 -20 -8 -11 -22 -20 -32 -20 -10 0 -18 -4 -18 -10 0 -5 -9 -10 -20
-10 -11 0 -20 -4 -20 -10 0 -5 -7 -10 -15 -10 -8 0 -15 -4 -15 -10 0 -5 -9
-10 -20 -10 -11 0 -20 -4 -20 -9 0 -5 -29 -13 -65 -16 -36 -4 -65 -11 -65 -16
0 -5 -22 -9 -50 -9 -27 0 -50 -4 -50 -10 0 -5 -20 -10 -45 -10 -25 0 -45 -4
-45 -10 0 -5 -18 -10 -40 -10 -22 0 -40 -4 -40 -10 0 -5 -5 -10 -10 -10 -6 0
-26 -16 -46 -35 -19 -19 -39 -35 -44 -35 -6 0 -10 -9 -10 -20 0 -11 -4 -20
-10 -20 -5 0 -10 -18 -10 -40 0 -22 -4 -40 -10 -40 -7 0 -10 -430 -10 -1270 0
-840 3 -1270 10 -1270 6 0 10 -18 10 -40 0 -22 5 -40 10 -40 6 0 10 -5 10 -10
0 -6 16 -26 35 -45 32 -32 39 -35 95 -35 33 0 60 4 60 10 0 6 8 10 18 10 10 0
24 10 32 21 8 12 20 26 26 32 57 49 74 67 74 76 0 7 16 27 35 47 19 19 35 39
35 45 0 6 14 24 30 39 17 15 30 33 30 40 0 7 14 25 30 40 17 15 30 31 30 34 0
4 11 18 25 32 14 14 25 32 25 40 0 9 14 29 30 44 17 15 30 35 30 44 0 9 4 16
8 16 14 0 52 36 52 49 0 7 11 23 25 37 14 14 25 34 25 44 0 11 4 20 8 20 14 0
52 36 52 50 0 6 14 25 30 40 17 15 30 34 30 40 0 7 11 23 25 36 14 13 25 28
25 34 0 7 18 29 40 50 22 21 40 45 40 52 0 7 10 20 21 28 37 26 49 41 49 61 0
12 7 19 20 19 11 0 20 5 20 10 0 6 9 10 20 10 11 0 20 5 20 10 0 6 9 10 20 10
11 0 20 -4 20 -10 0 -5 11 -10 25 -10 14 0 25 -4 25 -10 0 -5 9 -10 20 -10 11
0 20 -4 20 -10 0 -5 9 -10 20 -10 11 0 20 -4 20 -10 0 -5 9 -10 20 -10 11 0
20 -4 20 -10 0 -5 11 -12 25 -16 14 -3 25 -10 25 -15 0 -5 8 -9 18 -9 10 0 24
-9 32 -20 8 -11 21 -20 30 -20 9 0 22 -9 30 -20 8 -11 18 -20 23 -20 5 0 22
-13 37 -30 15 -16 35 -30 44 -30 17 0 86 -65 86 -80 0 -6 7 -10 15 -10 17 0
61 -40 191 -174 36 -36 69 -66 74 -66 6 0 10 -7 10 -15 0 -17 8 -28 58 -80 17
-19 32 -41 32 -50 0 -8 4 -15 8 -15 14 0 52 -36 52 -50 0 -7 8 -20 18 -29 11
-9 22 -28 26 -43 3 -16 11 -28 16 -28 6 0 10 -6 10 -13 0 -7 9 -19 20 -27 11
-8 20 -22 20 -32 0 -10 5 -18 10 -18 6 0 10 -9 10 -20 0 -11 5 -20 10 -20 6 0
10 -9 10 -19 0 -11 9 -22 19 -26 13 -4 22 -19 26 -45 4 -22 11 -40 16 -40 5 0
9 -9 9 -20 0 -11 5 -20 10 -20 6 0 10 -7 10 -15 0 -8 5 -15 10 -15 6 0 10 -13
10 -30 0 -16 5 -30 10 -30 6 0 10 -9 10 -20 0 -11 5 -20 10 -20 6 0 10 -13 10
-30 0 -16 5 -30 10 -30 6 0 10 -11 10 -25 0 -14 5 -25 10 -25 6 0 10 -9 10
-20 0 -11 4 -20 9 -20 5 0 13 -29 16 -65 4 -36 11 -65 16 -65 5 0 9 -18 9 -40
0 -22 5 -40 10 -40 6 0 10 -16 10 -35 0 -19 5 -35 10 -35 6 0 10 -22 10 -50 0
-27 5 -50 10 -50 6 0 10 -25 10 -55 0 -30 5 -55 10 -55 6 0 10 -38 10 -95 0
-57 4 -95 10 -95 6 0 10 -57 10 -150 0 -93 -4 -150 -10 -150 -6 0 -10 -38 -10
-95 0 -57 -4 -95 -10 -95 -5 0 -10 -25 -10 -55 0 -30 -4 -55 -10 -55 -5 0 -10
-20 -10 -45 0 -25 -4 -45 -10 -45 -5 0 -10 -18 -10 -40 0 -22 -4 -40 -10 -40
-5 0 -10 -18 -10 -40 0 -22 -4 -40 -9 -40 -5 0 -13 -25 -16 -55 -4 -30 -11
-55 -16 -55 -5 0 -9 -11 -9 -25 0 -14 -4 -25 -10 -25 -5 0 -10 -13 -10 -30 0
-16 -4 -30 -10 -30 -5 0 -10 -9 -10 -20 0 -11 -4 -20 -10 -20 -5 0 -10 -13
-10 -30 0 -16 -4 -30 -10 -30 -5 0 -10 -7 -10 -15 0 -8 -4 -15 -10 -15 -5 0
-10 -9 -10 -20 0 -11 -4 -20 -10 -20 -5 0 -10 -13 -10 -30 0 -16 -4 -30 -9
-30 -5 0 -13 -15 -17 -32 -3 -18 -15 -40 -25 -49 -11 -9 -19 -24 -19 -33 0 -9
-4 -16 -10 -16 -5 0 -10 -8 -10 -18 0 -10 -9 -24 -20 -32 -11 -8 -20 -20 -20
-27 0 -7 -4 -13 -10 -13 -5 0 -10 -9 -10 -20 0 -11 -4 -20 -10 -20 -5 0 -13
-12 -16 -27 -4 -16 -15 -35 -26 -44 -10 -9 -18 -20 -18 -23 0 -4 -18 -25 -40
-46 -22 -21 -40 -44 -40 -50 0 -7 -20 -31 -45 -56 -25 -24 -45 -48 -45 -54 0
-6 -24 -34 -52 -61 -64 -60 -57 -53 -117 -116 -27 -29 -55 -53 -61 -53 -6 0
-30 -20 -54 -45 -25 -25 -50 -45 -56 -45 -7 0 -25 -13 -40 -30 -15 -16 -35
-30 -43 -30 -9 0 -19 -9 -22 -20 -3 -11 -15 -20 -26 -20 -10 0 -19 -4 -19 -10
0 -5 -12 -13 -27 -16 -16 -4 -35 -15 -44 -26 -9 -10 -20 -18 -25 -18 -5 0 -16
-9 -24 -20 -8 -11 -22 -20 -32 -20 -10 0 -18 -4 -18 -10 0 -5 -7 -10 -15 -10
-9 0 -27 -10 -40 -22 -13 -13 -30 -28 -37 -35 -26 -24 -38 -42 -38 -58 0 -8
-4 -15 -10 -15 -5 0 -10 -9 -10 -20 0 -11 -4 -20 -10 -20 -5 0 -10 -16 -10
-35 0 -19 -4 -35 -10 -35 -7 0 -10 -352 -10 -1035 0 -683 3 -1035 10 -1035 6
0 10 -18 10 -40 0 -22 5 -40 10 -40 6 0 10 -9 10 -20 0 -11 5 -20 10 -20 6 0
10 -9 10 -20 0 -13 9 -22 25 -26 14 -3 25 -10 25 -15 0 -5 14 -9 30 -9 17 0
30 -4 30 -10 0 -5 20 -10 45 -10 25 0 45 5 45 10 0 6 23 10 50 10 28 0 50 4
50 9 0 5 25 13 55 16 30 4 55 11 55 16 0 5 14 9 30 9 17 0 30 5 30 10 0 6 11
10 25 10 14 0 25 5 25 10 0 6 14 10 30 10 17 0 30 5 30 10 0 6 14 10 30 10 17
0 30 5 30 10 0 6 7 10 15 10 8 0 15 5 15 10 0 6 14 10 30 10 17 0 30 5 30 10
0 6 9 10 20 10 11 0 20 4 20 9 0 4 19 11 42 14 24 3 44 11 46 16 2 6 12 11 23
11 10 0 19 5 19 10 0 6 9 10 20 10 11 0 20 5 20 10 0 6 9 10 20 10 11 0 20 5
20 10 0 6 11 10 25 10 14 0 25 5 25 10 0 6 9 10 20 10 11 0 20 5 20 10 0 6 9
10 20 10 11 0 20 4 20 10 0 5 11 12 25 16 14 3 25 10 25 15 0 5 9 9 20 9 11 0
20 5 20 10 0 6 9 10 20 10 11 0 20 5 20 10 0 6 8 10 18 10 10 0 24 9 32 20 8
11 20 20 27 20 7 0 13 5 13 10 0 6 9 10 20 10 11 0 20 5 20 10 0 6 7 10 16 10
8 0 22 7 30 15 9 8 24 15 35 15 10 0 19 4 19 10 0 5 16 25 35 44 19 20 35 41
35 48 0 8 9 20 20 28 15 11 20 26 20 57 0 24 5 43 10 43 6 0 10 14 10 30 0 17
-4 30 -10 30 -6 0 -10 32 -10 75 0 43 -4 75 -10 75 -6 0 -10 43 -10 110 0 67
4 110 10 110 6 0 10 23 10 50 0 28 5 50 10 50 6 0 10 16 10 35 0 19 5 35 10
35 6 0 10 14 10 30 0 17 4 30 9 30 6 0 13 20 17 45 3 25 10 45 15 45 5 0 9 8
9 18 0 10 9 24 20 32 11 8 20 21 20 30 0 9 9 22 20 30 11 8 20 18 20 23 0 4
10 19 23 32 37 40 47 54 47 65 0 14 46 60 60 60 11 0 25 10 65 48 13 12 28 22
32 22 5 0 15 9 23 20 8 11 21 20 30 20 9 0 22 9 30 20 8 11 22 20 31 20 10 0
19 5 21 11 2 5 22 13 46 16 23 3 42 10 42 14 0 5 9 9 20 9 11 0 20 5 20 10 0
6 16 10 35 10 19 0 35 5 35 10 0 6 23 10 50 10 28 0 50 5 50 10 0 6 53 10 140
10 87 0 140 -4 140 -10 0 -6 50 -10 130 -10 80 0 130 4 130 10 0 6 7 10 15 10
9 0 35 19 60 43 24 23 51 48 59 55 9 7 16 22 16 32 0 11 5 20 10 20 6 0 10 8
10 18 0 10 9 24 20 32 11 8 20 20 20 27 0 7 5 13 10 13 6 0 10 9 10 20 0 11 5
20 10 20 6 0 10 8 10 18 0 10 9 24 20 32 11 8 20 22 20 32 0 10 4 18 10 18 5
0 12 16 16 35 3 19 10 35 15 35 5 0 9 9 9 20 0 11 5 20 10 20 6 0 10 9 10 20
0 11 5 20 10 20 6 0 10 7 10 15 0 8 5 15 10 15 6 0 10 9 10 20 0 11 5 20 10
20 6 0 10 14 10 30 0 17 5 30 10 30 6 0 10 9 10 19 0 11 5 21 11 23 5 2 13 22
16 46 3 23 10 42 14 42 5 0 9 9 9 20 0 11 5 20 10 20 6 0 10 14 10 30 0 17 5
30 10 30 6 0 10 7 10 15 0 8 5 15 10 15 6 0 10 14 10 30 0 17 5 30 10 30 6 0
10 14 10 30 0 17 5 30 10 30 6 0 10 11 10 25 0 14 5 25 10 25 6 0 10 14 10 30
0 17 4 30 9 30 5 0 12 25 16 55 3 30 11 55 16 55 5 0 9 14 9 30 0 17 5 30 10
30 6 0 10 20 10 45 0 25 5 45 10 45 6 0 10 18 10 40 0 22 -4 40 -10 40 -5 0
-10 16 -10 35 0 19 -4 35 -10 35 -5 0 -10 7 -10 15 0 18 -10 31 -57 78 -60 59
-82 77 -95 77 -8 0 -20 9 -28 20 -8 11 -19 20 -25 20 -6 0 -17 9 -25 20 -8 11
-20 20 -28 20 -7 0 -24 11 -38 25 -14 14 -29 25 -34 25 -5 0 -12 9 -15 20 -3
11 -13 20 -21 20 -18 0 -44 24 -44 40 0 14 -57 70 -71 70 -5 0 -9 9 -9 20 0
11 -4 20 -10 20 -5 0 -13 12 -16 28 -4 15 -15 34 -26 43 -10 9 -18 24 -18 33
0 9 -4 16 -10 16 -5 0 -10 7 -10 15 0 8 -4 15 -10 15 -5 0 -10 14 -10 30 0 17
-4 30 -10 30 -5 0 -10 14 -10 30 0 17 -4 30 -10 30 -5 0 -10 11 -10 25 0 14
-4 25 -10 25 -5 0 -10 23 -10 50 0 28 -4 50 -10 50 -6 0 -10 57 -10 150 0 93
4 150 10 150 6 0 10 20 10 45 0 25 5 45 10 45 6 0 10 14 10 30 0 17 5 30 10
30 6 0 10 14 10 30 0 17 5 30 10 30 6 0 10 7 10 15 0 8 5 15 10 15 6 0 10 9
10 20 0 11 5 20 10 20 6 0 10 9 10 20 0 11 5 20 10 20 6 0 10 9 10 20 0 11 5
20 10 20 6 0 10 7 10 15 0 8 11 25 25 39 14 14 25 30 25 36 0 7 19 29 43 51
77 71 82 76 97 98 8 11 21 21 28 21 8 0 27 14 42 30 15 17 35 30 43 30 8 0 17
7 21 15 3 8 15 15 26 15 11 0 20 5 20 10 0 6 7 10 16 10 9 0 29 14 44 30 15
17 35 30 44 30 9 0 16 4 16 10 0 5 11 21 25 35 14 14 30 25 35 25 6 0 10 9 10
20 0 11 5 20 10 20 6 0 10 9 10 20 0 11 5 20 10 20 6 0 10 42 10 105 0 63 -4
105 -10 105 -5 0 -10 16 -10 35 0 19 -4 35 -10 35 -5 0 -10 14 -10 30 0 17 -4
30 -10 30 -5 0 -10 16 -10 35 0 19 -4 35 -10 35 -5 0 -10 14 -10 30 0 17 -4
30 -9 30 -5 0 -12 25 -16 55 -3 30 -11 55 -16 55 -5 0 -9 14 -9 30 0 17 -4 30
-10 30 -5 0 -10 14 -10 30 0 17 -4 30 -10 30 -5 0 -10 11 -10 25 0 14 -4 25
-10 25 -5 0 -10 14 -10 30 0 17 -4 30 -10 30 -5 0 -10 9 -10 20 0 11 -4 20
-10 20 -5 0 -10 11 -10 25 0 14 -4 25 -10 25 -5 0 -10 9 -10 20 0 11 -4 20
-10 20 -5 0 -12 23 -16 50 -4 28 -10 50 -15 50 -5 0 -9 7 -9 15 0 8 -4 15 -10
15 -5 0 -10 9 -10 20 0 11 -4 20 -10 20 -5 0 -10 9 -10 20 0 11 -4 20 -10 20
-5 0 -10 9 -10 20 0 11 -4 20 -10 20 -5 0 -10 7 -10 15 0 8 -4 15 -10 15 -5 0
-10 9 -10 20 0 11 -4 20 -9 20 -5 0 -12 18 -16 40 -4 22 -11 40 -16 40 -5 0
-9 6 -9 13 0 7 -9 19 -20 27 -11 8 -20 21 -20 30 0 9 -9 22 -20 30 -11 8 -20
20 -20 28 0 17 -41 58 -68 66 -12 4 -22 12 -22 17 0 5 -13 9 -30 9 -16 0 -30
5 -30 10 0 6 -35 10 -85 10 -50 0 -85 -4 -85 -10 0 -5 -24 -10 -54 -10 -34 0
-56 -5 -58 -12 -6 -18 -430 -18 -436 0 -2 6 -19 12 -38 12 -19 0 -34 5 -34 10
0 6 -13 10 -30 10 -16 0 -30 5 -30 10 0 6 -7 10 -15 10 -8 0 -15 5 -15 10 0 6
-9 10 -20 10 -11 0 -20 5 -20 10 0 6 -9 10 -20 10 -11 0 -20 5 -20 10 0 6 -9
10 -20 10 -11 0 -20 5 -20 10 0 6 -9 10 -20 10 -11 0 -23 7 -26 15 -4 8 -13
15 -21 15 -8 0 -32 18 -53 40 -21 22 -45 40 -52 40 -7 0 -20 10 -28 21 -8 12
-21 27 -27 35 -7 7 -13 15 -13 19 0 4 -18 24 -40 45 -22 21 -40 46 -40 54 0 9
-4 16 -10 16 -5 0 -10 5 -10 11 0 6 -7 17 -15 25 -8 9 -15 24 -15 35 0 10 -4
19 -10 19 -5 0 -10 9 -10 20 0 11 -4 20 -10 20 -5 0 -10 14 -10 30 0 17 -4 30
-10 30 -5 0 -10 7 -10 15 0 8 -4 15 -10 15 -5 0 -10 18 -10 40 0 22 -4 40 -10
40 -5 0 -10 16 -10 35 0 19 -4 35 -10 35 -6 0 -10 60 -10 160 0 100 4 160 10
160 6 0 10 27 10 60 0 33 4 60 10 60 6 0 10 16 10 35 0 19 5 35 10 35 6 0 10
27 10 60 0 33 4 60 10 60 6 0 10 11 10 25 0 14 -4 25 -10 25 -5 0 -10 18 -10
40 0 22 -4 40 -10 40 -5 0 -10 6 -10 13 0 7 -9 19 -20 27 -11 8 -20 20 -20 28
0 15 -24 42 -37 42 -5 0 -15 9 -23 20 -8 11 -21 20 -29 20 -7 0 -21 8 -30 19
-9 10 -31 22 -49 25 -17 4 -32 12 -32 17 0 5 -8 9 -18 9 -10 0 -24 9 -32 20
-8 11 -22 20 -32 20 -10 0 -18 5 -18 10 0 6 -9 10 -20 10 -11 0 -20 5 -20 10
0 6 -7 10 -15 10 -8 0 -15 5 -15 10 0 6 -9 10 -20 10 -11 0 -20 5 -20 10 0 6
-9 10 -20 10 -11 0 -20 4 -20 9 0 5 -16 12 -35 15 -19 4 -35 11 -35 16 0 6 -9
10 -20 10 -11 0 -20 5 -20 10 0 6 -9 10 -20 10 -11 0 -20 5 -20 10 0 6 -13 10
-30 10 -16 0 -30 5 -30 10 0 6 -7 10 -15 10 -8 0 -15 5 -15 10 0 6 -9 10 -20
10 -11 0 -20 5 -20 10 0 6 -13 10 -30 10 -16 0 -30 4 -30 9 0 6 -20 13 -45 17
-25 3 -45 10 -45 15 0 5 -13 9 -30 9 -16 0 -30 5 -30 10 0 6 -9 10 -20 10 -11
0 -20 5 -20 10 0 6 -11 10 -25 10 -14 0 -25 5 -25 10 0 6 -13 10 -30 10 -16 0
-30 5 -30 10 0 6 -18 10 -40 10 -22 0 -40 5 -40 10 0 6 -11 10 -25 10 -14 0
-25 5 -25 10 0 6 -13 10 -29 10 -16 0 -31 4 -33 9 -4 9 -146 19 -200 14z"/>
</g>
</svg>
